#!OML:ASF H:\Terrain\Walking\May29\JustinRory\Justin.ASF
:FULLY-SPECIFIED
:DEGREES
1919
root 11.6111 16.8754 7.66603 -320.295 -78.5639 325.992 
lowerback 13.4753 -5.95062 -4.57323 
upperback 2.72184 -8.46317 5.42619 
thorax -3.09793 -4.29068 9.62674 
lowerneck 3.4972 -18.1902 -18.1763 
upperneck 1.04476 -26.5128 24.1844 
head 5.55309 -13.3507 8.10294 
rclavicle 3.03147e-15 -6.36111e-15 
rhumerus -37.3292 -33.4115 -11.9069 
rradius 60.7945 
rwrist -63.6563 
rhand -5.50724 -3.13018 
rfingers 7.12502 
rthumb 20.306 -32.0887 
lclavicle 3.03147e-15 -6.36111e-15 
lhumerus 31.0366 -41.7848 57.6255 
lradius 64.02 
lwrist -0.53622 
lhand 5.57144 28.5405 
lfingers 7.12502 
lthumb 30.9149 55.9581 
rfemur -23.765 -14.2899 9.75394 
rtibia 48.2915 
rfoot -12.7878 3.99341 
rtoes -30.9349 
lfemur -19.3926 13.0854 -15.9979 
ltibia 57.4255 
lfoot -25.2197 -11.2253 
ltoes -5.04346 
1920
root 11.5964 16.9072 7.709 -320.847 -77.9346 326.592 
lowerback 13.6632 -5.87079 -4.82999 
upperback 2.74857 -8.39675 5.4869 
thorax -3.13634 -4.25684 9.85563 
lowerneck 3.77335 -18.4297 -18.1629 
upperneck 0.984122 -26.8531 24.0978 
head 5.54401 -13.5346 8.0358 
rclavicle 6.88789e-14 1.98785e-16 
rhumerus -37.0864 -33.9263 -11.6915 
rradius 59.954 
rwrist -63.6451 
rhand -5.59946 -3.53707 
rfingers 7.12502 
rthumb 20.2174 -32.5049 
lclavicle 6.88789e-14 1.98785e-16 
lhumerus 28.568 -39.3535 58.6814 
lradius 63.5138 
lwrist -0.684751 
lhand 5.88592 29.4759 
lfingers 7.12502 
lthumb 31.2146 56.8363 
rfemur -23.9593 -13.8495 11.068 
rtibia 48.3154 
rfoot -13.3789 6.34931 
rtoes -27.9465 
lfemur -19.8785 14.0244 -15.5015 
ltibia 58.042 
lfoot -23.5826 -13.4107 
ltoes -2.54071 
1921
root 11.588 16.943 7.77012 -322.71 -77.2672 328.304 
lowerback 14.1371 -5.7575 -5.01515 
upperback 2.84594 -8.28747 5.44942 
thorax -3.28962 -4.19657 9.9678 
lowerneck 3.77811 -18.6672 -18.0528 
upperneck 1.0654 -27.1829 24.0332 
head 5.61033 -13.6905 7.93371 
rclavicle -2.51463e-14 4.87022e-14 
rhumerus -37.3093 -34.4365 -11.3108 
rradius 59.3107 
rwrist -63.291 
rhand -5.77911 -3.72549 
rfingers 7.12502 
rthumb 20.0447 -32.7115 
lclavicle -2.51463e-14 4.87022e-14 
lhumerus 26.5232 -36.9695 59.4158 
lradius 63.0054 
lwrist -0.792644 
lhand 5.56598 30.9449 
lfingers 7.12502 
lthumb 30.9097 58.3636 
rfemur -23.8102 -13.499 11.9368 
rtibia 48.283 
rfoot -13.7424 7.52901 
rtoes -22.7288 
lfemur -20.2207 14.6504 -15.2812 
ltibia 58.6729 
lfoot -21.5049 -15.329 
ltoes -0.805648 
1922
root 11.575 16.9906 7.83526 -325.034 -76.6582 330.54 
lowerback 14.394 -5.74022 -5.1953 
upperback 3.03838 -8.30568 5.28502 
thorax -3.21908 -4.21365 9.91122 
lowerneck 3.72458 -18.769 -18.0921 
upperneck 1.08742 -27.3585 24.2854 
head 5.71095 -13.7739 7.96738 
rclavicle 5.23798e-14 -3.45885e-14 
rhumerus -37.3873 -34.9162 -11.3433 
rradius 58.5835 
rwrist -63.2414 
rhand -5.98912 -3.45469 
rfingers 7.12502 
rthumb 19.8428 -32.4618 
lclavicle 5.23798e-14 -3.45885e-14 
lhumerus 24.6745 -34.3306 59.7234 
lradius 62.4524 
lwrist -0.652219 
lhand 4.15579 32.5645 
lfingers 7.12502 
lthumb 29.5644 60.2298 
rfemur -23.7115 -13.3331 12.6288 
rtibia 48.2638 
rfoot -14.2945 6.23778 
rtoes -21.1914 
lfemur -20.6482 15.1073 -15.2779 
ltibia 59.3744 
lfoot -19.1157 -17.2275 
ltoes -0.108862 
1923
root 11.5584 17.0256 7.89956 -329.356 -76.1067 335.067 
lowerback 14.3961 -5.86845 -5.68447 
upperback 3.13424 -8.55089 4.96338 
thorax -3.04695 -4.33968 9.85421 
lowerneck 3.74569 -18.8262 -18.362 
upperneck 0.940376 -27.4879 24.7568 
head 5.8096 -13.8478 8.11143 
rclavicle 8.85586e-14 -1.74931e-14 
rhumerus -36.9934 -35.6521 -11.456 
rradius 57.3261 
rwrist -63.1193 
rhand -5.72065 -3.24472 
rfingers 7.12502 
rthumb 20.1009 -32.2249 
lclavicle 8.85586e-14 -1.74931e-14 
lhumerus 22.7826 -31.4583 60.0309 
lradius 61.8453 
lwrist -0.53866 
lhand 2.3071 34.1836 
lfingers 7.12502 
lthumb 27.7983 62.1477 
rfemur -23.6835 -12.9905 12.5807 
rtibia 48.198 
rfoot -14.6446 3.03227 
rtoes -20.1007 
lfemur -21.4053 15.3229 -15.9209 
ltibia 60.1264 
lfoot -15.967 -19.3528 
ltoes 2.91027 
1924
root 11.5431 17.0505 7.96269 -334.583 -75.4257 340.504 
lowerback 14.5934 -5.99769 -6.44016 
upperback 3.18437 -8.84453 4.60675 
thorax -2.98142 -4.48124 9.94633 
lowerneck 3.69649 -18.9783 -18.4326 
upperneck 0.703666 -27.6893 25.0713 
head 5.85398 -13.9534 8.16531 
rclavicle 2.54444e-14 -5.1684e-14 
rhumerus -36.4627 -36.7626 -11.3943 
rradius 55.7861 
rwrist -62.4395 
rhand -5.32248 -3.38975 
rfingers 7.12502 
rthumb 20.4835 -32.3292 
lclavicle 2.54444e-14 -5.1684e-14 
lhumerus 20.9783 -28.4809 60.4388 
lradius 61.1806 
lwrist -0.615131 
lhand 1.51613 35.1648 
lfingers 7.12502 
lthumb 27.0417 63.2487 
rfemur -23.3503 -12.5318 11.9773 
rtibia 48.0328 
rfoot -14.7516 -0.601831 
rtoes -19.128 
lfemur -22.2915 15.5038 -16.8053 
ltibia 60.957 
lfoot -12.2812 -21.4064 
ltoes 5.66336 
